<svg width="28" height="30" viewBox="0 0 28 30" fill="none" xmlns="http://www.w3.org/2000/svg">
<path d="M19.8047 6C19.8047 4.4087 19.1626 2.88257 18.0198 1.75735C16.877 0.632136 15.3271 0 13.7109 0C12.0948 0 10.5449 0.632136 9.40209 1.75735C8.25929 2.88257 7.61719 4.4087 7.61719 6V9C7.61719 10.5913 8.25929 12.1174 9.40209 13.2426C10.5449 14.3679 12.0948 15 13.7109 15C15.3271 15 16.877 14.3679 18.0198 13.2426C19.1626 12.1174 19.8047 10.5913 19.8047 9V6Z" stroke="white" stroke-width="2"/>
<path d="M0 30C2.31562 23.82 7.61719 19.5 13.7109 19.5C19.8047 19.5 25.1063 23.82 27.4219 30" stroke="white" stroke-width="2"/>
</svg>
